# xmcd
#
# Track frame offsets:
#	150
#	12113
#	39429
#	60095
#	82851
#	98600
#	117861
#	133611
#	151520
#	165558
#	181299
#	202261
#
# Disc length: 3054 seconds
#
# Revision: 0
# Processed by: cddbd v1.5.2PL0 Copyright (c) Steve Scherf et al.
# Submitted via: EZCDAudioConverter 1.3.4.1
#
DISCID=810bec0c
DTITLE=Blues Menu - Nie samym bluesem
DYEAR=2013
DGENRE=
TTITLE0=Dlaczego po drodze
TTITLE1=Na swoja obrone
TTITLE2=Wyj serce !
TTITLE3=List z Londynu
TTITLE4=Swieta za pasem
TTITLE5=Deprecha
TTITLE6=Niech skonczy sie ten sen
TTITLE7=Ballada dla bufetowej
TTITLE8=Blues starego kawalera
TTITLE9=Ten stary Jakub Kukunamuniu
TTITLE10=Zle sklonnosci
TTITLE11=Gdybym tylko mogla (ft. Magda Piskorczyk)
EXTD=
EXTT0=
EXTT1=
EXTT2=
EXTT3=
EXTT4=
EXTT5=
EXTT6=
EXTT7=
EXTT8=
EXTT9=
EXTT10=
EXTT11=
PLAYORDER=
